<svg width="32" height="32" viewBox="0 0 32 32" fill="none" xmlns="http://www.w3.org/2000/svg">
  <rect width="32" height="32" rx="6" fill="#1e40af"/>
  <path d="M8 6h16c1.1 0 2 .9 2 2v16c0 1.1-.9 2-2 2H8c-1.1 0-2-.9-2-2V8c0-1.1.9-2 2-2z" fill="#3b82f6"/>
  <rect x="10" y="10" width="12" height="2" rx="1" fill="white"/>
  <rect x="10" y="14" width="10" height="1.5" rx="0.75" fill="white" opacity="0.8"/>
  <rect x="10" y="17.5" width="8" height="1.5" rx="0.75" fill="white" opacity="0.6"/>
  <rect x="10" y="21" width="6" height="1.5" rx="0.75" fill="white" opacity="0.4"/>
  <circle cx="22" cy="22" r="4" fill="#10b981"/>
  <path d="M20.5 22l1 1 2-2" stroke="white" stroke-width="1.5" stroke-linecap="round" stroke-linejoin="round"/>
</svg>
